<svg  width="142" height="40" fill="none" viewBox="0 0 142 40">
  <circle cx="20" cy="20" r="20" fill="#8282C8"/>
  <path fill="#fff" d="M19.032 14.704v1.792H14.28v3.024h3.808v1.728H14.28V26h-2.256V14.704h7.008zM20.968 14.704v1.792h4.752v3.024h-3.808v1.728h3.808V26h2.256V14.704h-7.008z"/>
  <path fill="#8282C8" d="M64.032 14.704v1.792H59.28v3.024h3.808v1.728H59.28V26h-2.256V14.704h7.008zm9.86 6.528c0 .224-.027.48-.08.768h-6.497c.032.79.246 1.37.64 1.744.395.373.886.56 1.472.56.523 0 .955-.128 1.296-.384a1.69 1.69 0 00.672-1.04h2.384a3.815 3.815 0 01-.752 1.664c-.384.49-.88.875-1.488 1.152-.597.277-1.264.416-2 .416-.864 0-1.632-.181-2.304-.544a3.932 3.932 0 01-1.568-1.584c-.373-.683-.56-1.488-.56-2.416 0-.928.187-1.733.56-2.416a3.805 3.805 0 011.568-1.584c.672-.363 1.44-.544 2.304-.544.875 0 1.638.181 2.288.544a3.752 3.752 0 011.52 1.504c.363.63.544 1.35.544 2.16zm-2.273-.224c.032-.725-.16-1.275-.576-1.648-.405-.373-.906-.56-1.504-.56-.608 0-1.12.187-1.536.56-.416.373-.645.923-.688 1.648h4.304zm12.21.224c0 .224-.027.48-.08.768h-6.496c.032.79.245 1.37.64 1.744.394.373.885.56 1.472.56.522 0 .954-.128 1.296-.384a1.69 1.69 0 00.672-1.04h2.384a3.815 3.815 0 01-.752 1.664c-.384.49-.88.875-1.488 1.152-.598.277-1.264.416-2 .416-.864 0-1.632-.181-2.304-.544a3.932 3.932 0 01-1.568-1.584c-.374-.683-.56-1.488-.56-2.416 0-.928.186-1.733.56-2.416a3.805 3.805 0 011.568-1.584c.672-.363 1.44-.544 2.304-.544.874 0 1.637.181 2.288.544a3.752 3.752 0 011.52 1.504c.362.63.544 1.35.544 2.16zm-2.272-.224c.032-.725-.16-1.275-.576-1.648-.406-.373-.907-.56-1.504-.56-.608 0-1.12.187-1.536.56-.416.373-.646.923-.688 1.648h4.304zm9.153-4c1.024 0 1.84.336 2.448 1.008.608.672.912 1.616.912 2.832V26h-2.24v-4.896c0-.704-.181-1.248-.544-1.632-.362-.395-.858-.592-1.488-.592-.64 0-1.152.208-1.536.624-.384.416-.576 1.013-.576 1.792V26H85.43v-8.864h2.256v1.776a2.794 2.794 0 011.152-1.392c.544-.341 1.168-.512 1.872-.512zm8.817.016c.747 0 1.387.176 1.92.528.534.352.912.827 1.136 1.424v-1.84h2.24V26h-2.24v-1.856a2.958 2.958 0 01-1.136 1.44c-.533.352-1.173.528-1.92.528a3.807 3.807 0 01-2.016-.544c-.597-.363-1.066-.885-1.408-1.568-.33-.693-.496-1.504-.496-2.432 0-.928.166-1.733.496-2.416.342-.693.81-1.221 1.408-1.584a3.807 3.807 0 012.016-.544zm.704 1.968c-.704 0-1.27.23-1.696.688-.426.459-.64 1.088-.64 1.888 0 .8.214 1.43.64 1.888.427.448.992.672 1.696.672.683 0 1.243-.23 1.68-.688.448-.47.672-1.093.672-1.872 0-.79-.224-1.413-.672-1.872-.437-.47-.997-.704-1.68-.704zm11.917-1.984c1.024 0 1.84.336 2.448 1.008.608.672.912 1.616.912 2.832V26h-2.24v-4.896c0-.704-.182-1.248-.544-1.632-.363-.395-.859-.592-1.488-.592-.64 0-1.152.208-1.536.624-.384.416-.576 1.013-.576 1.792V26h-2.256v-8.864h2.256v1.776a2.788 2.788 0 011.152-1.392c.544-.341 1.168-.512 1.872-.512zm9.329.016c1.141 0 2.09.31 2.848.928.768.619 1.248 1.461 1.44 2.528h-2.384c-.096-.47-.315-.837-.656-1.104-.342-.277-.774-.416-1.296-.416-.598 0-1.099.224-1.504.672-.395.437-.592 1.083-.592 1.936s.197 1.504.592 1.952c.405.437.906.656 1.504.656.522 0 .954-.133 1.296-.4.341-.277.56-.65.656-1.12h2.384c-.192 1.067-.672 1.91-1.44 2.528-.758.619-1.707.928-2.848.928-.864 0-1.632-.181-2.304-.544a3.93 3.93 0 01-1.568-1.584c-.374-.683-.56-1.488-.56-2.416 0-.928.186-1.733.56-2.416a3.804 3.804 0 011.568-1.584c.672-.363 1.44-.544 2.304-.544zm9.363 0c.746 0 1.386.176 1.92.528.533.352.912.827 1.136 1.424v-1.84h2.24V26h-2.24v-1.856a2.964 2.964 0 01-1.136 1.44c-.534.352-1.174.528-1.92.528a3.806 3.806 0 01-2.016-.544c-.598-.363-1.067-.885-1.408-1.568-.331-.693-.496-1.504-.496-2.432 0-.928.165-1.733.496-2.416.341-.693.81-1.221 1.408-1.584a3.806 3.806 0 012.016-.544zm.704 1.968c-.704 0-1.27.23-1.696.688-.427.459-.64 1.088-.64 1.888 0 .8.213 1.43.64 1.888.426.448.992.672 1.696.672.682 0 1.242-.23 1.68-.688.448-.47.672-1.093.672-1.872 0-.79-.224-1.413-.672-1.872-.438-.47-.998-.704-1.68-.704zm6.38-4.4c0-.363.128-.656.384-.88.256-.235.592-.352 1.008-.352.416 0 .752.117 1.008.352.256.224.384.517.384.88 0 .352-.128.645-.384.88-.256.224-.592.336-1.008.336-.416 0-.752-.112-1.008-.336a1.144 1.144 0 01-.384-.88zm2.512 2.544V26h-2.256v-8.864h2.256z"/>
</svg>
