<svg width="103" height="24" fill="none">
  <path fill="url(#paint0_linear_0:407)" fill-rule="evenodd" d="M101.194 11.026c-.829-.739-1.863-1.108-3.101-1.108-1.159 0-2.162.24-3.011.719a5.193 5.193 0 00-1.993 1.977V0h-4.105v23.64h4.195v-5.333c0-1.418.29-2.577.869-3.475.58-.9 1.348-1.349 2.307-1.349 1.218 0 1.858.64 1.918 1.918v8.24h4.194v-9.798c-.02-1.139-.444-2.078-1.273-2.817zm-75.4-9.438h6.591c2.817 0 5.134.544 6.951 1.633 1.818 1.089 3.141 2.497 3.97 4.225.83 1.728 1.244 3.58 1.244 5.558 0 2.117-.5 3.985-1.498 5.603a10.067 10.067 0 01-4.03 3.73c-1.688.869-3.54 1.303-5.558 1.303h-7.67V1.588zM16.548 23.92a2 2 0 001.837-2.79L11.53 5.184c-.688-1.6-2.95-1.617-3.663-.028L.72 21.102a2 2 0 001.825 2.818H16.55zm21.529-6.212c-1.319 1.158-3.106 1.738-5.363 1.738h-2.577V5.753h3.535c.86 0 1.773.2 2.742.6.969.399 1.818 1.118 2.547 2.156.729 1.04 1.093 2.437 1.093 4.195 0 2.177-.659 3.845-1.977 5.004zm27.206-7.161V23.64h-4.195v-1.617C59.831 23.34 58.373 24 56.715 24c-1.938 0-3.511-.58-4.72-1.738-1.208-1.158-1.812-2.876-1.812-5.153 0-1.439.294-2.702.884-3.79.589-1.09 1.373-1.933 2.352-2.533a5.922 5.922 0 013.146-.898c1.158 0 2.077.174 2.756.524.68.35 1.279.844 1.798 1.483l.27-1.348h3.895zm-4.195 8.06c-.66 1.318-1.718 1.977-3.176 1.977-.62 0-1.193-.16-1.723-.48a3.556 3.556 0 01-1.273-1.332 3.76 3.76 0 01-.48-1.873c0-1.039.325-1.898.974-2.577.65-.68 1.433-1.019 2.352-1.019.8 0 1.493.19 2.083.57.589.38 1.003.889 1.243 1.528v3.206zm15.76 5.303a7.996 7.996 0 01-3.026-.57c-.939-.379-1.718-.908-2.337-1.587l1.738-2.307c1.158 1.078 2.247 1.618 3.266 1.618.54 0 .974-.085 1.303-.255.33-.17.495-.425.495-.764 0-.4-.19-.704-.57-.914a6.407 6.407 0 00-1.273-.524c-.47-.14-.784-.23-.944-.27-1.139-.36-1.987-.894-2.547-1.603a3.834 3.834 0 01-.839-2.442c0-.699.185-1.383.555-2.052.37-.67.944-1.219 1.722-1.648.78-.43 1.748-.644 2.907-.644 1.078 0 1.997.11 2.756.33.76.219 1.489.578 2.188 1.078l-1.588 2.457c-.4-.32-.844-.585-1.334-.794-.49-.21-.933-.315-1.333-.315-.48 0-.869.1-1.168.3-.3.2-.45.44-.45.719-.02.42.155.734.524.944.37.21.944.424 1.723.644a17.08 17.08 0 00.78.24c2.057.679 3.085 1.917 3.085 3.715a4.4 4.4 0 01-.629 2.307c-.42.7-1.053 1.264-1.902 1.693-.85.43-1.883.644-3.102.644z" clip-rule="evenodd"/>
  <defs>
    <linearGradient id="paint0_linear_0:407" x1="51.234" x2="40.576" y1="-12" y2="33.504" gradientUnits="userSpaceOnUse">
      <stop stop-color="#50FFF5"/>
      <stop offset="1" stop-color="#6B2BFE"/>
    </linearGradient>
  </defs>
</svg>
